<svg xmlns="http://www.w3.org/2000/svg" width="244" height="244" viewBox="0 0 244 244" fill="none">
  <rect width="244" height="244" rx="26" fill="white"/>
  <path d="M174.657 122H188.966V136.309H174.657V122ZM148.329 122H162.637V136.309H148.329V122ZM107.691 136.309H122V147.756H107.691V136.309ZM81.3629 200.985H43.015V163.21H80.7905L81.3629 200.985ZM95.6718 188.966V162.637H107.119V148.328H55.0345V122H28.7061V136.309H43.015V147.756H28.7061V214.722H95.6718V200.413H107.119V188.966H95.6718ZM107.691 107.691H81.3629V122H95.6718V136.309H107.119V107.691H107.691ZM69.3434 122H80.7905V136.309H69.3434V122ZM107.691 55.0342H122V69.3431H107.691V55.0342ZM188.966 162.637H174.657V174.084H200.985V147.756H215.294V136.309H188.966V162.637ZM162.637 136.309H174.085V147.756H162.637V136.309ZM162.637 43.0147H200.413V80.7903H162.637V43.0147ZM174.657 107.691V96.2439H215.294V28.7058H148.329V43.0147H122V54.4619H148.329V68.7708H136.881V80.2179H148.329V94.5268H162.637V105.974H174.657V107.691ZM107.691 81.3626H122V95.6715H107.691V81.3626ZM200.985 174.657H215.294V188.966H200.985V174.657ZM215.294 122V107.691H188.966V122H215.294ZM174.657 215.294H215.294V200.985H188.966V189.538H174.657V215.294ZM162.637 162.637H148.329V188.966H174.657V174.657H163.21L162.637 162.637ZM107.691 200.985V215.294H136.881V200.985H107.691ZM136.309 188.966H147.756V200.413H136.309V188.966ZM122 174.084V188.966H136.309V162.637H147.756V148.328H121.428V174.084H122ZM122 120.855V136.309H136.309V122H147.756V107.691H136.309V96.2439H122V120.855ZM174.657 55.0342H188.966V69.3431H174.657V55.0342ZM55.0345 174.657H69.3434V188.966H55.0345V174.657ZM81.3629 81.3626H43.015V43.0147H80.7905L81.3629 81.3626ZM95.6718 28.7058H28.7061V95.6715H55.0345V107.119H69.3434V95.6715H95.6718V81.3626H107.119V69.9155H95.6718V28.7058ZM55.0345 55.0342H69.3434V69.3431H55.0345V55.0342Z" fill="black"/>
</svg>