<svg xmlns="http://www.w3.org/2000/svg" width="20" height="20" viewBox="0 0 20 20" fill="none">
  <path d="M14.7392 19H5.3387C2.92831 19 1 17.08 1 14.68V5.32C1 2.92 2.92831 1 5.3387 1H14.6589C17.0693 1 18.9976 2.92 18.9976 5.32V14.6C19.0779 17.08 17.1496 19 14.7392 19Z" stroke="#FFD12C" stroke-width="2" stroke-miterlimit="10"/>
  <path d="M16.1057 15.8003C14.7398 13.8803 12.4901 12.7603 10.16 12.7603C7.6693 12.7603 5.4196 14.0403 4.05371 15.9603" stroke="#FFD12C" stroke-width="2" stroke-miterlimit="10"/>
  <path d="M9.99901 10.4403C11.774 10.4403 13.2129 9.00759 13.2129 7.24028C13.2129 5.47297 11.774 4.04028 9.99901 4.04028C8.22405 4.04028 6.78516 5.47297 6.78516 7.24028C6.78516 9.00759 8.22405 10.4403 9.99901 10.4403Z" stroke="#FFD12C" stroke-width="2" stroke-miterlimit="10"/>
</svg>