<svg xmlns="http://www.w3.org/2000/svg" width="20" height="20" viewBox="0 0 20 20" fill="none">
  <g opacity="0.6">
    <path d="M14.7392 19H5.3387C2.92831 19 1 17.08 1 14.68V5.32C1 2.92 2.92831 1 5.3387 1H14.6589C17.0693 1 18.9976 2.92 18.9976 5.32V14.6C19.0779 17.08 17.1496 19 14.7392 19Z" stroke="white" stroke-width="2" stroke-miterlimit="10"/>
    <path d="M16.1054 15.8003C14.7395 13.8803 12.4898 12.7603 10.1598 12.7603C7.66905 12.7603 5.41935 14.0403 4.05347 15.9603" stroke="white" stroke-width="2" stroke-miterlimit="10"/>
    <path d="M9.99877 10.4403C11.7737 10.4403 13.2126 9.00759 13.2126 7.24028C13.2126 5.47297 11.7737 4.04028 9.99877 4.04028C8.2238 4.04028 6.78491 5.47297 6.78491 7.24028C6.78491 9.00759 8.2238 10.4403 9.99877 10.4403Z" stroke="white" stroke-width="2" stroke-miterlimit="10"/>
  </g>
</svg>