<svg xmlns="http://www.w3.org/2000/svg" width="18" height="18" viewBox="0 0 18 18" fill="none">
  <g opacity="0.6">
    <path d="M8.99992 12.5263C11.0928 12.5263 12.7894 10.7236 12.7894 8.49995C12.7894 6.27628 11.0928 4.47363 8.99992 4.47363C6.90705 4.47363 5.21045 6.27628 5.21045 8.49995C5.21045 10.7236 6.90705 12.5263 8.99992 12.5263Z" stroke="white" stroke-width="1.5" stroke-miterlimit="10"/>
    <path d="M1 9.94737C1 4.97661 4.55556 1 9 1C13.4444 1 17 4.97661 17 9.94737" stroke="white" stroke-width="1.5" stroke-miterlimit="10"/>
    <path d="M14.2875 14.8492C14.875 14.161 15.2422 13.3867 15.3157 12.5264H2.68408C2.75752 13.4727 3.19816 14.333 3.85911 15.0213C5.03414 16.2258 6.87013 17.0001 8.99987 17.0001C11.1296 17.0001 12.9656 16.2258 14.1406 15.0213C14.1406 15.0213 14.2141 14.9353 14.2875 14.8492Z" stroke="white" stroke-width="1.5" stroke-miterlimit="10"/>
  </g>
</svg>