<svg xmlns="http://www.w3.org/2000/svg" width="20" height="20" viewBox="0 0 20 20" fill="none">
  <path fill-rule="evenodd" clip-rule="evenodd" d="M9.3435 8.94651C8.31173 6.30977 8.25441 4.36087 9.28618 3.09982C10.4345 1.70538 12.7567 1.27932 14.6989 1.21275C15.079 1.41749 15.4415 1.64465 15.7838 1.89189C16.2162 2.21622 16.6486 2.54054 17.027 2.97297C18.8649 4.75676 20 7.24324 20 10C20 12.7568 18.8649 15.2432 17.0811 17.0811C15.2973 18.9189 12.7568 20 10 20C9.39158 20 8.78316 19.9366 8.20117 19.823C8.68091 19.6471 9.11236 19.3977 9.51546 19.0349C11.407 17.3153 11.3497 13.9334 9.3435 8.94651ZM4.09355 18.0137C3.87633 17.8551 3.66496 17.6882 3.45946 17.5135C1.35135 15.7297 0 13.027 0 10C0 7.24324 1.13514 4.75676 2.91892 2.91892C4.75676 1.13514 7.24324 0 10 0C10.3552 0 10.7012 0.0182332 11.0382 0.0546995C9.84746 0.431189 8.71525 1.04088 7.85317 2.01073C6.42015 3.78767 6.36283 6.30977 7.6812 9.57703C9.3435 13.7041 9.57278 16.5701 8.31173 17.7739C7.42962 18.656 5.65505 18.5517 4.09355 18.0137Z" fill="#FFD12C"/>
</svg>