<svg xmlns="http://www.w3.org/2000/svg" width="21" height="20" viewBox="0 0 21 20" fill="none">
  <path d="M17.2128 13.6485V15.6404C17.2128 17.0142 16.2543 18.1818 14.9964 18.1818H4.03446C2.83644 18.1818 1.81812 17.0828 1.81812 15.6404V5.26871C1.81812 3.89497 2.83644 2.72729 4.03446 2.72729H15.0563C16.2543 2.72729 17.2727 3.89497 17.2727 5.26871V7.26063" stroke="#FFD12C" stroke-width="2" stroke-miterlimit="10"/>
  <path d="M18.9742 14.0607H15.4712C13.9533 14.0607 12.7273 12.6797 12.7273 10.9698C12.7273 9.25995 13.9533 7.87891 15.4712 7.87891H18.9742C19.0325 7.87891 19.0909 7.94467 19.0909 8.01043V13.9292C19.0909 14.0607 19.0325 14.0607 18.9742 14.0607Z" stroke="#FFD12C" stroke-width="2" stroke-miterlimit="10"/>
</svg>