<svg xmlns="http://www.w3.org/2000/svg" width="21" height="20" viewBox="0 0 21 20" fill="none">
  <g opacity="0.6">
    <path d="M17.213 13.6485V15.6404C17.213 17.0142 16.2546 18.1818 14.9967 18.1818H4.03471C2.83668 18.1818 1.81836 17.0828 1.81836 15.6404V5.26871C1.81836 3.89497 2.83668 2.72729 4.03471 2.72729H15.0566C16.2546 2.72729 17.2729 3.89497 17.2729 5.26871V7.26063" stroke="white" stroke-width="2" stroke-miterlimit="10"/>
    <path d="M18.9744 14.0607H15.4715C13.9536 14.0607 12.7275 12.6797 12.7275 10.9698C12.7275 9.25995 13.9536 7.87891 15.4715 7.87891H18.9744C19.0328 7.87891 19.0912 7.94467 19.0912 8.01043V13.9292C19.0912 14.0607 19.0328 14.0607 18.9744 14.0607Z" stroke="white" stroke-width="2" stroke-miterlimit="10"/>
  </g>
</svg>