<svg xmlns="http://www.w3.org/2000/svg" width="14" height="14" viewBox="0 0 14 14" fill="none">
  <path d="M11.3273 11.3273C10.7545 11.9 10.1182 12.3455 9.38636 12.6318C9.06818 12.7591 8.71818 12.8864 8.36818 12.95C8.33636 12.95 8.33636 12.95 8.30455 12.95C8.24091 12.95 8.20909 12.95 8.14545 12.9818C8.36818 12.0909 8.46364 11.5818 8.90909 11.2C9.51364 10.6909 9.03636 10.0864 8.59091 10.0864C8.55909 10.0864 8.52727 10.0864 8.52727 10.0864C8.49545 10.0864 8.49545 10.0864 8.46364 10.0864C8.14545 10.0864 8.36818 9.60909 8.05 9.57727C7.7 9.54545 7.25455 8.87727 6.77727 8.65455C6.52273 8.52727 6.26818 8.20909 5.85455 8.17727H5.82273C5.56818 8.17727 5.25 8.33636 5.09091 8.33636C5.02727 8.33636 4.99545 8.30455 4.99545 8.24091C4.99545 7.44545 4.9 6.90455 4.9 6.68182C4.9 6.61818 4.86818 6.58636 4.9 6.58636C4.93182 6.58636 4.99545 6.61818 5.28182 6.65C5.53636 6.65 5.40909 6.10909 5.66364 6.10909H5.69545C5.91818 6.10909 6.33182 6.26818 6.55455 6.26818C6.58636 6.26818 6.65 6.26818 6.65 6.23636C6.77727 6.23636 7.25455 7.41364 7.50909 7.41364C7.60455 7.41364 7.7 7.22273 7.7 6.65C7.7 6.42727 7.57273 6.01364 7.7 5.79091C8.17727 4.9 8.62273 4.2 8.59091 4.10455C8.59091 4.07273 8.43182 4.04091 8.24091 4.04091C8.08182 4.04091 7.89091 4.07273 7.73182 4.10455C7.60455 4.13636 7.76364 4.35909 7.60455 4.39091C7.47727 4.42273 7.38182 4.42273 7.25455 4.42273C6.74545 4.42273 6.36364 4.13636 6.52273 3.88182C6.74545 3.56364 7.50909 3.72273 7.57273 3.08636C7.60455 2.76818 7.63636 2.45 7.63636 2.16364C7.63636 2.06818 7.73182 1.97273 7.82727 1.97273C8.33636 1.94091 8.4 1.33636 7.92273 0.954545C8.43182 1.01818 8.94091 1.17727 9.41818 1.36818C10.15 1.68636 10.8182 2.13182 11.3591 2.67273C11.8682 3.18182 12.2818 3.78636 12.5682 4.42273C12.5045 4.35909 12.4091 4.35909 12.3455 4.35909C11.9636 4.35909 11.6136 4.86818 11.8364 5.47273C10.0227 6.87273 10.5 7.85909 11.0727 8.4C11.2318 8.55909 11.4227 8.78182 11.5818 8.97273C11.7409 9.16364 11.8045 9.41818 11.8682 9.64091C11.9 9.73636 11.9636 9.76818 12.0591 9.76818C12.2182 9.76818 12.4409 9.67273 12.6636 9.48182C12.2818 10.1818 11.8682 10.7864 11.3273 11.3273ZM4.61364 12.6318C3.88182 12.3136 3.21364 11.8682 2.67273 11.3273C2.1 10.7545 1.65455 10.1182 1.36818 9.38636C1.05 8.62273 0.890909 7.82727 0.890909 7C0.890909 6.61818 0.922727 6.20455 0.986364 5.82273C1.08182 5.85455 1.17727 5.88636 1.27273 5.88636C1.4 5.88636 1.52727 5.85455 1.65455 5.79091C1.75 5.72727 1.87727 5.69545 2.00455 5.69545C2.1 5.69545 2.22727 5.72727 2.32273 5.79091C2.41818 5.85455 2.51364 5.95 2.51364 6.10909C2.51364 7.22273 2.54545 8.4 3.56364 8.43182C3.59545 8.43182 4.13636 8.62273 4.39091 9.29091C4.42273 9.35455 4.48636 9.38636 4.55 9.38636C4.70909 9.38636 4.93182 9.29091 5.18636 9.29091C5.37727 9.29091 5.18636 9.60909 5.18636 10.3091C5.18636 11.0091 6.68182 12.0591 6.68182 12.0591C6.68182 12.5045 6.68182 12.8545 6.71364 13.1409C6.01364 13.0773 5.28182 12.9182 4.61364 12.6318ZM7 0C3.11818 0 0 3.11818 0 7C0 10.8818 3.11818 14 7 14C10.8818 14 14 10.8818 14 7C14 3.11818 10.8818 0 7 0Z" fill="white" fill-opacity="0.6"/>
</svg>