<svg xmlns="http://www.w3.org/2000/svg" width="81" height="28" viewBox="0 0 81 28" fill="none">
  <path d="M48.1897 19.6108C48.1897 23.0542 45.7698 25.852 42.7095 25.852H34.7383V23.6281H42.7095C44.4888 23.6281 45.9834 21.8347 45.9834 19.6108C45.9834 17.3869 44.5599 15.5935 42.7095 15.5935H39.0798C36.0906 15.5935 33.5996 12.7957 33.5996 9.35227C33.5996 5.90886 36.0194 3.11108 39.0798 3.11108H47.1221V5.33496H39.1509C37.3717 5.33496 35.8771 7.1284 35.8771 9.35227C35.8771 11.5761 37.3717 13.3696 39.1509 13.3696H42.7807C45.7698 13.3696 48.1897 16.1674 48.1897 19.6108Z" fill="white"/>
  <path d="M80.9997 3.11108V5.40669H75.2348V24.7042H73.0285V5.40669H67.2637V3.11108H80.9997Z" fill="white"/>
  <path d="M53.5273 5.40669V11.4327H60.1462V13.6565H53.5273V24.7042H51.321V3.11108H64.8435V5.40669H53.5273Z" fill="white"/>
  <path fill-rule="evenodd" clip-rule="evenodd" d="M13.0984 12.5251C11.652 8.83368 11.5716 6.10522 13.0181 4.33975C14.6281 2.38745 17.8837 1.791 20.6066 1.69784C21.1396 1.98447 21.6476 2.30251 22.1276 2.64865C22.7338 3.1027 23.34 3.55676 23.8705 4.16216C26.447 6.65946 28.0383 10.1405 28.0383 14C28.0383 17.8595 26.447 21.3405 23.9463 23.9135C21.4455 26.4865 17.8839 28 14.0192 28C13.1661 28 12.3131 27.9112 11.4971 27.7521C12.1696 27.5059 12.7744 27.1568 13.3395 26.6489C15.9914 24.2414 15.911 19.5068 13.0984 12.5251ZM5.73918 25.2195C5.43453 24.9973 5.13809 24.7636 4.84988 24.5189C1.89448 22.0216 0 18.2378 0 14C0 10.1405 1.59137 6.65946 4.09208 4.08649C6.66858 1.58919 10.1544 0 14.0192 0C14.517 0 15.0021 0.0255167 15.4744 0.0765501C13.805 0.603634 12.2177 1.45721 11.0091 2.81503C9.00015 5.30274 8.91979 8.83368 10.768 13.4079C13.0984 19.1858 13.4199 23.1982 11.652 24.8834C10.4155 26.1182 7.92809 25.9724 5.73918 25.2195Z" fill="#FFD12C"/>
</svg>