<svg xmlns="http://www.w3.org/2000/svg" width="24" height="24" viewBox="0 0 24 24" fill="none">
  <path d="M17.6873 22.8H6.40664C3.51417 22.8 1.2002 20.496 1.2002 17.616V6.38395C1.2002 3.50395 3.51417 1.19995 6.40664 1.19995H17.5908C20.4833 1.19995 22.7973 3.50395 22.7973 6.38395V17.52C22.8937 20.496 20.5797 22.8 17.6873 22.8Z" stroke="white" stroke-width="2" stroke-miterlimit="10"/>
  <path d="M19.3266 18.9603C17.6875 16.6563 14.9879 15.3123 12.1918 15.3123C9.20296 15.3123 6.50332 16.8483 4.86426 19.1523" stroke="white" stroke-width="2" stroke-miterlimit="10"/>
  <path d="M11.9992 12.5284C14.1292 12.5284 15.8558 10.8092 15.8558 8.68839C15.8558 6.56762 14.1292 4.84839 11.9992 4.84839C9.86925 4.84839 8.14258 6.56762 8.14258 8.68839C8.14258 10.8092 9.86925 12.5284 11.9992 12.5284Z" stroke="white" stroke-width="2" stroke-miterlimit="10"/>
</svg>