<svg xmlns="http://www.w3.org/2000/svg" width="24" height="25" viewBox="0 0 24 25" fill="none">
  <path d="M21.5905 6.9131C21.5905 5.8783 21.5905 4.69568 21.5905 3.43915C21.5905 3.1435 21.3688 2.84784 21.0731 2.77393C18.1166 1.88696 15.5296 1.36957 11.9817 1C11.9078 1 11.9078 1 11.8339 1C10.06 1.07391 8.43387 1.29565 6.88168 1.66522C5.40341 2.03479 3.92514 2.40436 2.59469 2.77393C2.29903 2.84784 2.15121 3.06958 2.15121 3.43915C2.15121 4.62177 2.15121 5.65656 2.15121 6.61744C2.00338 14.9697 2.00338 18.0741 10.1339 22.5828C10.7991 22.9524 11.3165 23.1002 11.8339 23.1002C12.3513 23.1002 12.8687 22.9524 13.5339 22.5828C21.7383 18.148 21.6644 15.561 21.5905 6.9131Z" stroke="white" stroke-width="2" stroke-miterlimit="10"/>
  <path d="M6.95605 10.3129L10.9474 14.0086L17.6735 7.57812" stroke="white" stroke-width="2" stroke-miterlimit="10"/>
</svg>