<svg xmlns="http://www.w3.org/2000/svg" width="44" height="52" viewBox="0 0 44 52" fill="none">
  <path d="M37.8159 51H6.1841C3.28452 51 1 48.6951 1 45.9634V21.0366C1 18.2195 3.37238 16 6.1841 16H37.8159C40.7155 16 43 18.3049 43 21.0366V45.9634C43 48.7805 40.6276 51 37.8159 51Z" stroke="white" stroke-width="2" stroke-miterlimit="10"/>
  <path d="M35 16V12.0406C35 5.94924 29.1724 1 22 1C14.8276 1 9 5.94924 9 12.0406V16" stroke="white" stroke-width="2" stroke-miterlimit="10"/>
  <path d="M16.5996 34.8H27.3996" stroke="white" stroke-width="2" stroke-miterlimit="10"/>
  <path d="M31 43.8L23.0588 24.9664C22.5294 23.6338 20.6765 23.7227 20.2353 24.9664L13 43.8" stroke="white" stroke-width="2" stroke-miterlimit="10"/>
</svg>